<?xml version="1.0" encoding="UTF-8"?>
<svg id="Capa_2" data-name="Capa 2" xmlns="http://www.w3.org/2000/svg" viewBox="0 0 552.13 177.19">
  <defs>
    <style>
      .cls-1, .cls-2, .cls-3, .cls-4 {
        stroke-width: 0px;
      }

      .cls-1, .cls-5, .cls-6, .cls-7, .cls-8, .cls-9 {
        fill: #1d1b20;
      }

      .cls-2 {
        fill: #fcce3b;
      }

      .cls-10 {
        font-family: CuteApricot, 'Cute Apricot';
        font-size: 123.92px;
      }

      .cls-11 {
        letter-spacing: -.04em;
      }

      .cls-11, .cls-12, .cls-4, .cls-13 {
        fill: #fdcf3b;
      }

      .cls-11, .cls-12, .cls-13 {
        stroke: #000;
        stroke-miterlimit: 10;
        stroke-width: 4px;
      }

      .cls-12 {
        letter-spacing: -.04em;
      }

      .cls-6 {
        letter-spacing: 0em;
      }

      .cls-7 {
        letter-spacing: .03em;
      }

      .cls-8 {
        letter-spacing: .07em;
      }

      .cls-9 {
        letter-spacing: 0em;
      }
    </style>
  </defs>
  <g id="Capa_1-2" data-name="Capa 1">
    <g>
      <path class="cls-1" d="M137.6,90.55c1.51-3.31,2.89-6.02,5-9,.56-.8.96-.94,1-1,2.38,5.86,4.66,11.68,8.5,16.75-3.45,18.95-6.11,9.75-14.5-6.75Z"/>
      <path class="cls-1" d="M133.6,102.05c.94-4.37,1.77-6.46,3.5-10.5,3.55,6.49,6.1,13.48,11.5,18.75-3.8,7.87-2.4,16.04-9.5,4-3.04-5.16-3.58-11.61-5.5-12.25Z"/>
      <path class="cls-1" d="M141.1,134.05c-10.19-6.58-10.04-20.97-8-31.5.35,0,.78-.16,1,.25.72,1.33,2.41,12.3,10.5,19.5l-3.5,11.75Z"/>
      <path class="cls-1" d="M163.1,117.55c-.6,1.05-.46,1.43-.5,1.5-4.19,6.82-11.44,13.27-18.75,16.5-1.63.2-1.66-.96-1.75-1l3.25-11.5,17.75-5.5Z"/>
      <path class="cls-4" d="M162.1,62.55c-1.41-.48-1.15,5.59-2,9.75-1.74,8.59-5.24,17.03-7.5,25.5,6.51-1.01,10.86-6.3,16-9.75,0,.04.45-.16.5.5-5.06,4.59-10.63,8.29-17,10.75-1.49,9.83-6.59,12.91,4.75,8.75,4.01-1.47,7.88-4.69,11.75-6.5,0,.02.09-.13,0,.5-5.58,4.28-12.24,7.4-19.25,8.5-8.68,19.54-.8,9.38,14.25,6.5-.36.68-.48.47-.5.5l-17.75,5.5-3.25,11.5c-.55-.22-.48-.16-1-.5l3.5-11.75c-8.09-7.2-9.78-18.17-10.5-19.5-.22-.41-.65-.25-1-.25.13-.69.49-.47.5-.5,1.92.64,2.46,7.09,5.5,12.25,7.1,12.04,5.7,3.87,9.5-4-5.4-5.27-7.95-12.26-11.5-18.75.15-.36.34-.64.5-1,8.39,16.5,11.05,25.7,14.5,6.75-3.84-5.07-6.12-10.89-8.5-16.75.36-.47.48-.47.5-.5,2.55,5.47,4.16,11.44,8.25,16,1.18-3.45,3.07-6.94,2.25-10.5l1,.25c.13-2.32,1.35-4.35,2-6.5,1.74-5.78,1.99-12.62,4-17.75.17.35.35.64.5,1Z"/>
      <path class="cls-1" d="M162.1,62.55c3.52,8.36,5.73,16.47,6.5,25.5-5.14,3.45-9.49,8.74-16,9.75,2.26-8.47,5.76-16.91,7.5-25.5.85-4.16.59-10.23,2-9.75Z"/>
      <path class="cls-1" d="M163.6,117.05c-15.05,2.88-22.93,13.04-14.25-6.5,7.01-1.1,13.67-4.22,19.25-8.5-.81,5.61-2.36,10.02-5,15Z"/>
      <path class="cls-1" d="M168.6,101.55c-3.87,1.81-7.74,5.03-11.75,6.5-11.34,4.16-6.24,1.08-4.75-8.75,6.37-2.46,11.94-6.16,17-10.75.29,4.31.02,8.71-.5,13Z"/>
      <path class="cls-1" d="M161.6,61.55c-2.01,5.13-2.26,11.97-4,17.75-.65,2.15-1.87,4.18-2,6.5l-1-.25c-.49-2.13-4.5-8.07-5.5-11,2.21-2.66,6.05-5.8,7.5-8.25,3.61-6.13,1.64-11.88,5-4.75Z"/>
      <path class="cls-1" d="M154.6,85.55c.82,3.56-1.07,7.05-2.25,10.5-4.09-4.56-5.7-10.53-8.25-16,1.48-1.9,3.07-3.25,4.5-5l6,10.5Z"/>
      <path class="cls-2" d="M154.6,85.55l-6-10.5c.31-.38.48-.47.5-.5,1,2.93,5.01,8.87,5.5,11Z"/>
      <path class="cls-1" d="M31.62,87.55c-1.51-3.31-2.89-6.02-5-9-.56-.8-.96-.94-1-1-2.38,5.86-4.66,11.68-8.5,16.75,3.45,18.95,6.11,9.75,14.5-6.75Z"/>
      <path class="cls-1" d="M35.62,99.05c-.94-4.37-1.77-6.46-3.5-10.5-3.55,6.49-6.1,13.48-11.5,18.75,3.8,7.87,2.4,16.04,9.5,4,3.04-5.16,3.58-11.61,5.5-12.25Z"/>
      <path class="cls-1" d="M28.12,131.05c10.19-6.58,10.04-20.97,8-31.5-.35,0-.78-.16-1,.25-.72,1.33-2.41,12.3-10.5,19.5l3.5,11.75Z"/>
      <path class="cls-1" d="M6.12,114.55c.6,1.05.46,1.43.5,1.5,4.19,6.82,11.44,13.27,18.75,16.5,1.63.2,1.66-.96,1.75-1l-3.25-11.5-17.75-5.5Z"/>
      <path class="cls-4" d="M7.12,59.55c1.41-.48,1.15,5.59,2,9.75,1.74,8.59,5.24,17.03,7.5,25.5-6.51-1.01-10.86-6.3-16-9.75,0,.04-.45-.16-.5.5,5.06,4.59,10.63,8.29,17,10.75,1.49,9.83,6.59,12.91-4.75,8.75-4.01-1.47-7.88-4.69-11.75-6.5,0,.02-.09-.13,0,.5,5.58,4.28,12.24,7.4,19.25,8.5,8.68,19.54.8,9.38-14.25,6.5.36.68.48.47.5.5l17.75,5.5,3.25,11.5c.55-.22.48-.16,1-.5l-3.5-11.75c8.09-7.2,9.78-18.17,10.5-19.5.22-.41.65-.25,1-.25-.13-.69-.49-.47-.5-.5-1.92.64-2.46,7.09-5.5,12.25-7.1,12.04-5.7,3.87-9.5-4,5.4-5.27,7.95-12.26,11.5-18.75-.15-.36-.34-.64-.5-1-8.39,16.5-11.05,25.7-14.5,6.75,3.84-5.07,6.12-10.89,8.5-16.75-.36-.47-.48-.47-.5-.5-2.55,5.47-4.16,11.44-8.25,16-1.18-3.45-3.07-6.94-2.25-10.5l-1,.25c-.13-2.32-1.35-4.35-2-6.5-1.74-5.78-1.99-12.62-4-17.75-.17.35-.35.64-.5,1Z"/>
      <path class="cls-1" d="M7.12,59.55c-3.52,8.36-5.73,16.47-6.5,25.5,5.14,3.45,9.49,8.74,16,9.75-2.26-8.47-5.76-16.91-7.5-25.5-.85-4.16-.59-10.23-2-9.75Z"/>
      <path class="cls-1" d="M5.62,114.05c15.05,2.88,22.93,13.04,14.25-6.5-7.01-1.1-13.67-4.22-19.25-8.5.81,5.61,2.36,10.02,5,15Z"/>
      <path class="cls-1" d="M.62,98.55c3.87,1.81,7.74,5.03,11.75,6.5,11.34,4.16,6.24,1.08,4.75-8.75-6.37-2.46-11.94-6.16-17-10.75-.29,4.31-.02,8.71.5,13Z"/>
      <path class="cls-1" d="M7.62,58.55c2.01,5.13,2.26,11.97,4,17.75.65,2.15,1.87,4.18,2,6.5l1-.25c.49-2.13,4.5-8.07,5.5-11-2.21-2.66-6.05-5.8-7.5-8.25-3.61-6.13-1.64-11.88-5-4.75Z"/>
      <path class="cls-1" d="M14.62,82.55c-.82,3.56,1.07,7.05,2.25,10.5,4.09-4.56,5.7-10.53,8.25-16-1.48-1.9-3.07-3.25-4.5-5l-6,10.5Z"/>
      <path class="cls-2" d="M14.62,82.55l6-10.5c-.31-.38-.48-.47-.5-.5-1,2.93-5.01,8.87-5.5,11Z"/>
      <g>
        <path class="cls-1" d="M132.85,50.55c-.36-3.34-1.18-6.74-2-10-1.9-7.53-4.39-11.45-5-13.5-2.51,4.16-10.73,10.51-11,11.25-.54,1.49.18,7.99-1,10,.74,1.88,13.42-13.45,13-16,1.63,5.71-12.13,15.78-13,17.5-1.07,2.1-1.06,12.99-2.5,16.5l.75.75c7.23-5.19,15.15-9.3,20.75-16.5Z"/>
        <path class="cls-1" d="M92.35,51.05c-.13,5.99-.58,10.38,0,16.5,4.23,6.37,9.42,11.67,15.75,16,3.83-14.86.82-11.39-5.75-19.75-3.33-4.23-6.19-8.92-10-12.75Z"/>
        <path class="cls-1" d="M108.35,94.55c11.41-1.52,21.37-14.04,24-24.5q-11.5,5.62-23,11.25c-1.02,2.05-.45,10.63-1,13.25Z"/>
        <path class="cls-1" d="M92.85,48.05c.06.65-.02,1.34,0,2l16.75,20c5.21-12.85-.18-11.67-7.25-21.25-2.29-3.1-4.34-6.75-6-10.25-1.34,3.14-2.52,6.23-3.5,9.5Z"/>
        <path class="cls-4" d="M111.35,16.55l4,5.25-1,17c-1.08,1.77-10.27-10.72-11-12.75-.04.06-.44.15-1,1,4.26,4.36,6.83,10.3,12,13.75l-2.5,17c-6.47-5.48-10.85-12.77-15.5-19.75-.06.14.06.36,0,.5,1.66,3.5,3.71,7.15,6,10.25,7.07,9.58,12.46,8.4,7.25,21.25l-16.75-20c.01.46-.49.52-.5,1,3.81,3.83,6.67,8.52,10,12.75,6.57,8.36,9.58,4.89,5.75,19.75-6.33-4.33-11.52-9.63-15.75-16,.09.95.37,1.68.5,2.5,4.34,5.85,9.5,10.63,15.5,14.75l-1,9c-.31.47-.64.65-.91.72-.29.07-.59.03-.59.03,0,0,.72,0,.72,0,.79,0,.88,0,1,0,.5,0,.75,0,.78,0,.34-.03.9-1.55,1-13.25l23-11.25c.07-.29-.06-.7,0-1-3.13,1.67-19.69,10.59-21.25,10.5-2.29-.14-.05-10.71.25-11.25.67-1.2,16.34-9.16,21.5-16.75-.03-.33.04-.67,0-1-5.6,7.2-13.52,11.31-20.75,16.5l-.75-.75c1.44-3.51,1.43-14.4,2.5-16.5.87-1.72,14.63-11.79,13-17.5.42,2.55-12.26,17.88-13,16,1.18-2.01.46-8.51,1-10,.27-.74,8.49-7.09,11-11.25-.08-.27.08-.73,0-1l-10.75,11.5,2.25-25.25-1.75,8.25-4.25-4Z"/>
        <path class="cls-1" d="M92.85,70.05c1.65,10.46,5.13,17.2,13,24.5.02-.08.8.29,1.5-.75l1-9c-6-4.12-11.16-8.9-15.5-14.75Z"/>
        <path class="cls-1" d="M96.35,38.05c4.65,6.98,9.03,14.27,15.5,19.75l2.5-17c-5.17-3.45-7.74-9.39-12-13.75-1.8,2.74-4.67,7.99-6,11Z"/>
        <path class="cls-1" d="M111.35,16.55l4.25,4,1.75-8.25-2.25,25.25,10.75-11.5c-5.03-16.75-3.73-20.2-4-21.25-2.14-8.19-4.56,4.12-5,5-.46.91-4.13,4.97-5.5,6.75Z"/>
        <path class="cls-1" d="M107.35,21.05l6.75,9.5-7.25-9c-1.17,1.59-2.31,2.77-3.5,4.5.73,2.03,9.92,14.52,11,12.75l1-17-4-5.25c-.18.24-1.62,1.27-4,4.5Z"/>
        <path class="cls-4" d="M106.85,21.55l7.25,9-6.75-9.5s-.13,0-.5.5Z"/>
        <g>
          <path class="cls-1" d="M132.35,69.05c1.48-6.88,1.13-10.58.5-17.5-5.16,7.59-20.83,15.55-21.5,16.75-.3.54-2.54,11.11-.25,11.25,1.56.09,18.12-8.83,21.25-10.5Z"/>
          <path class="cls-1" d="M118.6,68.55c-.92-.29-2.61,1.99-1,2.5,1.78.56,2.39-2.06,1-2.5Z"/>
        </g>
      </g>
      <path class="cls-1" d="M135.05,156.73c-.34,2.8-.42,5.66-1.07,8.38-2.01,8.46-8.11,12.77-16.93,12-7.64-.67-14.51-3.65-20.75-7.93-7.8-5.35-15.36-5.37-23.15-.05-5.68,3.88-11.89,6.68-18.75,7.73-10.92,1.68-17.77-3.29-19.55-14.07-3.77-22.78,13.83-51.31,35.78-58.02,23.87-7.3,47.93,4.49,58.74,28.81,3.27,7.36,5.43,15,5.68,23.16Z"/>
      <path class="cls-1" d="M38.6,48.55c.36-3.34,1.18-6.74,2-10,1.9-7.53,4.39-11.45,5-13.5,2.51,4.16,10.73,10.51,11,11.25.54,1.49-.18,7.99,1,10-.74,1.88-13.42-13.45-13-16-1.63,5.71,12.13,15.78,13,17.5,1.07,2.1,1.06,12.99,2.5,16.5l-.75.75c-7.23-5.19-15.15-9.3-20.75-16.5Z"/>
      <path class="cls-1" d="M79.1,49.05c.13,5.99.58,10.38,0,16.5-4.23,6.37-9.42,11.67-15.75,16-3.83-14.86-.82-11.39,5.75-19.75,3.33-4.23,6.19-8.92,10-12.75Z"/>
      <path class="cls-1" d="M63.1,92.55c-11.41-1.52-21.37-14.04-24-24.5l23,11.25c1.02,2.05.45,10.63,1,13.25Z"/>
      <path class="cls-1" d="M78.6,46.05c-.06.65.02,1.34,0,2l-16.75,20c-5.21-12.85.18-11.67,7.25-21.25,2.29-3.1,4.34-6.75,6-10.25,1.34,3.14,2.52,6.23,3.5,9.5Z"/>
      <path class="cls-4" d="M60.1,14.55l-4,5.25,1,17c.56.93,10.65-11.78,11-12.75.04.06.44.15,1,1-4.26,4.36-6.83,10.3-12,13.75l2.5,17c3.19-2.7,13.14-16.21,15.5-19.75.06.14-.06.36,0,.5-1.66,3.5-3.71,7.15-6,10.25-7.07,9.58-12.46,8.4-7.25,21.25l16.75-20c-.01.46.49.52.5,1-3.81,3.83-6.67,8.52-10,12.75-6.57,8.36-9.58,4.89-5.75,19.75,3.16-2.16,13.63-12.82,15.75-16-.09.95-.37,1.68-.5,2.5-4.34,5.85-9.5,10.63-15.5,14.75l1,9c.31.47.64.65.91.72.29.07.59.03.59.03,0,0-.72,0-.72,0-.79,0-.88,0-1,0-.5,0-.75,0-.78,0-.34-.03-.9-1.55-1-13.25-3.58-1.75-15.08-7.38-23-11.25-.07-.29.06-.7,0-1,1.5.8,20.44,10.55,21.25,10.5,2.29-.14.05-10.71-.25-11.25-.67-1.2-16.34-9.16-21.5-16.75.03-.33-.04-.67,0-1,.4.51,21.12,16.12,21.5,15.75-1.44-3.51-1.43-14.4-2.5-16.5-.87-1.72-14.63-11.79-13-17.5-.23,1.4,12.66,16.85,13,16-1.18-2.01-.46-8.51-1-10-.27-.74-8.49-7.09-11-11.25.08-.27-.08-.73,0-1l10.75,11.5-2.25-25.25,1.75,8.25,1.9-1.79,2.35-2.21Z"/>
      <path class="cls-1" d="M78.6,68.05c-1.65,10.46-5.13,17.2-13,24.5-.02-.08-.8.29-1.5-.75l-1-9c6-4.12,11.16-8.9,15.5-14.75Z"/>
      <path class="cls-1" d="M75.1,36.05c-4.65,6.98-9.03,14.27-15.5,19.75l-2.5-17c5.17-3.45,7.74-9.39,12-13.75,1.8,2.74,4.67,7.99,6,11Z"/>
      <path class="cls-1" d="M60.1,14.55l-4.25,4-1.75-8.25,2.25,25.25-10.75-11.5c5.03-16.75,3.73-20.2,4-21.25,2.14-8.19,4.56,4.12,5,5,.46.91,4.13,4.97,5.5,6.75Z"/>
      <path class="cls-1" d="M64.1,19.05l-6.75,9.5,7.25-9c1.17,1.59,2.31,2.77,3.5,4.5-.73,2.03-9.92,14.52-11,12.75l-1-17,4-5.25c.18.24,1.62,1.27,4,4.5Z"/>
      <path class="cls-1" d="M64.6,19.55c-.61.76-5.99,7.44-7.25,9l6.75-9.5s.13,0,.5.5Z"/>
      <g>
        <path class="cls-1" d="M39.1,67.05c-1.48-6.88-1.13-10.58-.5-17.5,5.16,7.59,20.83,15.55,21.5,16.75.3.54,2.54,11.11.25,11.25-1.56.09-18.12-8.83-21.25-10.5Z"/>
        <path class="cls-1" d="M52.85,66.55c.92-.29,2.61,1.99,1,2.5-1.78.56-2.39-2.06-1-2.5Z"/>
      </g>
      <g>
        <g>
          <path class="cls-4" d="M69.83,146.75c-3.68-3.6-6.39-7.74-7.16-12.94-.56-3.77.06-7.31,2.34-10.44,4.91-6.76,14.47-6.92,19.62-.51.32.4.63.8.88,1.24.16.28.24.19.37-.02,1.22-1.93,2.82-3.44,4.84-4.51.63-.33,1.27-.62,1.96-.81.3-.03.58.05.86.15,1.71.63,3.27,1.52,4.54,2.85.85.9,1.56,1.91,2,3.07.45,1.18.7,2.4.82,3.66.21,2.41-.15,4.76-.86,7.04-.75,2.4-1.94,4.59-3.6,6.52-1.34,1.56-2.9,2.85-4.69,3.83-2.26,1.24-4.68,2.02-7.25,2.33-.74.09-1.49.18-2.23.17-1.34-.03-2.67.06-4.01-.07-1.71-.16-3.39-.42-5.07-.78-1.12-.24-2.24-.53-3.36-.78Z"/>
          <path class="cls-4" d="M69.83,146.75c.34-.17.66.03.96.11,1.31.35,2.64.63,3.97.88,1.14.22,2.31.36,3.47.46,1.44.12,2.88.06,4.32.06,1.17,0,2.33-.2,3.48-.41,1.5-.27,2.94-.75,4.32-1.38,1.37-.63,2.68-1.38,3.84-2.39.55-.48,1.12-.94,1.62-1.48,1.41-1.54,2.56-3.25,3.39-5.18.48-1.12.88-2.25,1.14-3.44.24-1.06.34-2.14.46-3.23.17-1.6-.02-3.17-.43-4.7-.38-1.42-1.02-2.71-2.04-3.84-.96-1.07-2.05-1.93-3.31-2.57-.74-.38-1.52-.7-2.34-.89,2.46-.8,4.94-.85,7.37,0,4.98,1.74,7.87,5.32,8.67,10.48.68,4.35-.53,8.35-2.77,12.06-2.29,3.78-5.44,6.74-8.99,9.32-3.37,2.45-6.99,4.44-10.82,6.05-.31.13-.57.13-.87,0-5.08-2.15-9.79-4.92-13.96-8.55-.5-.44-1.01-.87-1.46-1.37Z"/>
        </g>
        <g>
          <path class="cls-3" d="M71.86,145.56c-3.2-3.14-5.57-6.75-6.25-11.29-.49-3.29.05-6.37,2.04-9.1,4.28-5.9,12.62-6.03,17.11-.45.28.35.55.7.77,1.08.14.24.21.16.32-.02,1.06-1.68,2.46-3,4.22-3.93.55-.29,1.11-.54,1.71-.71.26-.02.51.04.75.13,1.49.55,2.85,1.32,3.96,2.49.74.79,1.36,1.66,1.75,2.68.39,1.03.61,2.09.71,3.19.19,2.1-.13,4.15-.75,6.13-.65,2.1-1.69,4-3.13,5.69-1.17,1.36-2.53,2.48-4.09,3.34-1.97,1.08-4.08,1.76-6.32,2.03-.65.08-1.3.16-1.95.15-1.16-.02-2.33.05-3.49-.06-1.49-.14-2.96-.37-4.42-.68-.98-.21-1.95-.46-2.93-.68Z"/>
          <path class="cls-3" d="M71.86,145.56c.3-.15.57.03.83.1,1.14.31,2.3.55,3.46.77,1,.19,2.01.31,3.03.4,1.26.11,2.51.05,3.77.05,1.02,0,2.03-.18,3.03-.36,1.31-.24,2.56-.65,3.76-1.2,1.2-.55,2.34-1.21,3.35-2.08.48-.42.98-.82,1.41-1.29,1.23-1.34,2.23-2.84,2.95-4.52.42-.97.76-1.96.99-3,.21-.93.3-1.87.4-2.81.15-1.4-.02-2.76-.38-4.09-.33-1.23-.89-2.36-1.78-3.35-.84-.93-1.79-1.68-2.88-2.24-.64-.33-1.32-.61-2.04-.78,2.14-.7,4.31-.74,6.43,0,4.34,1.51,6.86,4.64,7.56,9.14.59,3.79-.46,7.28-2.42,10.52-2,3.3-4.75,5.88-7.84,8.13-2.94,2.13-6.09,3.87-9.44,5.28-.27.11-.49.12-.76,0-4.43-1.88-8.53-4.29-12.17-7.45-.44-.38-.88-.76-1.27-1.2Z"/>
        </g>
      </g>
    </g>
    <text class="cls-10" transform="translate(189.88 128.32)"><tspan class="cls-7" x="0" y="0">T</tspan><tspan class="cls-6" x="52.46" y="0">i</tspan><tspan class="cls-8" x="71.7" y="0">g</tspan><tspan class="cls-9" x="129" y="0">r</tspan><tspan class="cls-5" x="173.65" y="0">e</tspan><tspan class="cls-12" x="224.84" y="0">V</tspan><tspan class="cls-11" x="269.98" y="0">e</tspan><tspan class="cls-13" x="316.45" y="0">t</tspan></text>
  </g>
</svg>